# xmcd CD database file
#
# Track frame offsets:
#	150
#	32091
#	84378
#	121310
#
# Disc length: 2367 seconds
#
# Revision: 0
# Processed by: cddbd v1.4PL0 Copyright (c) Steve Scherf et al.
# Submitted via: NeoAudio 9.9.9
#
DISCID=27093d04
DTITLE=David S. Ware Quartet - The Freedom Suite
DYEAR=2002
DGENRE=Jazz
TTITLE0=Freedom Suite 1
TTITLE1=Freedom Suite 2
TTITLE2=Freedom Suite 3
TTITLE3=Freedom Suite 4
EXTD=YEAR: 2002
EXTT0=
EXTT1=
EXTT2=
EXTT3=
PLAYORDER=
